<svg xmlns="http://www.w3.org/2000/svg" xmlns:xlink="http://www.w3.org/1999/xlink" viewBox="0,0,256,256" width="100px" height="100px"><g fill="none" fill-rule="nonzero" stroke="none" stroke-width="1" stroke-linecap="butt" stroke-linejoin="miter" stroke-miterlimit="10" stroke-dasharray="" stroke-dashoffset="0"   text-anchor="none" style="mix-blend-mode: normal"><g transform="scale(2.56,2.56)"><g><circle cx="77" cy="13" r="1" fill="#f1bc19"></circle><circle cx="50" cy="50" r="37" fill="#3069ff"></circle><circle cx="83" cy="15" r="4" fill="#f1bc19"></circle><circle cx="87" cy="24" r="2" fill="#8889b9"></circle><circle cx="81" cy="76" r="2" fill="#fbcd59"></circle><circle cx="15" cy="63" r="4" fill="#fbcd59"></circle><circle cx="25" cy="87" r="2" fill="#8889b9"></circle><circle cx="18.375" cy="54.5" r="2.5" fill="#ffffff"></circle><circle cx="77.5" cy="30.5" r="1.5" fill="#ffffff"></circle><path d="M66.719,73h-31.438c-4.021,0 -7.281,-3.26 -7.281,-7.281v-31.438c0,-4.021 3.26,-7.281 7.281,-7.281h31.438c4.021,0 7.281,3.26 7.281,7.281v31.438c0,4.021 -3.26,7.281 -7.281,7.281z" fill="#fdfcef"></path><path d="M67.719,27.4c3.243,0 5.881,2.638 5.881,5.881v33.438c0,3.243 -2.638,5.881 -5.881,5.881h-33.438c-3.243,0 -5.881,-2.638 -5.881,-5.881v-33.438c0,-3.243 2.638,-5.881 5.881,-5.881h33.438M67.719,26h-33.438c-4.021,0 -7.281,3.26 -7.281,7.281v33.438c0,4.021 3.26,7.281 7.281,7.281h33.438c4.021,0 7.281,-3.26 7.281,-7.281v-33.438c0,-4.021 -3.26,-7.281 -7.281,-7.281z" fill="#472b29"></path><path d="M31.5,40.167c-0.276,0 -0.5,-0.224 -0.5,-0.5v-4.333c0,-2.941 2.393,-5.334 5.333,-5.334h19.167c0.276,0 0.5,0.224 0.5,0.5c0,0.276 -0.224,0.5 -0.5,0.5h-19.167c-2.39,0 -4.333,1.944 -4.333,4.333v4.333c0,0.277 -0.224,0.501 -0.5,0.501z" fill="#472b29"></path><path d="M31.5,55.245c-0.276,0 -0.5,-0.224 -0.5,-0.5v-12.245c0,-0.276 0.224,-0.5 0.5,-0.5c0.276,0 0.5,0.224 0.5,0.5v12.245c0,0.276 -0.224,0.5 -0.5,0.5z" fill="#472b29"></path><path d="M39.583,70h-3.25c-2.94,0 -5.333,-2.393 -5.333,-5.333v-6.241c0,-0.276 0.224,-0.5 0.5,-0.5c0.276,0 0.5,0.224 0.5,0.5v6.241c0,2.389 1.943,4.333 4.333,4.333h3.25c0.276,0 0.5,0.224 0.5,0.5c0,0.276 -0.224,0.5 -0.5,0.5z" fill="#472b29"></path><path d="M65.667,70h-22.75c-0.276,0 -0.5,-0.224 -0.5,-0.5c0,-0.276 0.224,-0.5 0.5,-0.5h22.75c2.39,0 4.333,-1.944 4.333,-4.333v-5.083c0,-0.276 0.224,-0.5 0.5,-0.5c0.276,0 0.5,0.224 0.5,0.5v5.083c0,2.94 -2.393,5.333 -5.333,5.333z" fill="#472b29"></path><path d="M70.5,56.167c-0.276,0 -0.5,-0.224 -0.5,-0.5v-20.334c0,-2.389 -1.943,-4.333 -4.333,-4.333h-0.75c-0.276,0 -0.5,-0.224 -0.5,-0.5c0,-0.276 0.224,-0.5 0.5,-0.5h0.75c2.94,0 5.333,2.393 5.333,5.333v20.333c0,0.277 -0.224,0.501 -0.5,0.501z" fill="#472b29"></path><path d="M62.5,31h-3.25c-0.276,0 -0.5,-0.224 -0.5,-0.5c0,-0.276 0.224,-0.5 0.5,-0.5h3.25c0.276,0 0.5,0.224 0.5,0.5c0,0.276 -0.224,0.5 -0.5,0.5z" fill="#472b29"></path><path d="M58.191,65h-14.382c-1.552,0 -2.809,-1.257 -2.809,-2.809v-24.382c0,-1.552 1.257,-2.809 2.809,-2.809h14.383c1.551,0 2.808,1.257 2.808,2.809v24.383c0,1.551 -1.257,2.808 -2.809,2.808z" fill="#000000"></path><path d="M57.734,44h-13.468c-0.699,0 -1.266,-0.567 -1.266,-1.266v-4.468c0,-0.699 0.567,-1.266 1.266,-1.266h13.468c0.699,0 1.266,0.567 1.266,1.266v4.468c0,0.699 -0.567,1.266 -1.266,1.266z" fill="#7c7c7c"></path><g fill="#d3d3d1"><path d="M51,62h-6c-1.104,0 -2,-0.895 -2,-2v0c0,-1.104 0.895,-2 2,-2h6c1.104,0 2,0.895 2,2v0c0,1.105 -0.895,2 -2,2z"></path></g><g fill="#d3d3d1"><circle cx="45" cy="54" r="2"></circle></g><g fill="#d3d3d1"><circle cx="51" cy="54" r="2"></circle></g><g fill="#fe9200"><circle cx="57" cy="54" r="2"></circle></g><g fill="#fe9200"><circle cx="57" cy="60" r="2"></circle></g><g fill="#d3d3d1"><circle cx="45" cy="48" r="2"></circle></g><g fill="#d3d3d1"><circle cx="51" cy="48" r="2"></circle></g><g fill="#fe9200"><circle cx="57" cy="48" r="2"></circle></g></g></g></g></svg>